<?xml version="1.0" encoding="UTF-8" standalone="no"?>
<!DOCTYPE svg PUBLIC "-//W3C//DTD SVG 1.1//EN" "http://www.w3.org/Graphics/SVG/1.1/DTD/svg11.dtd">
<svg width="100%" height="100%" viewBox="0 0 500 500" version="1.1" xmlns="http://www.w3.org/2000/svg" xmlns:xlink="http://www.w3.org/1999/xlink" xml:space="preserve" xmlns:serif="http://www.serif.com/" style="fill-rule:evenodd;clip-rule:evenodd;stroke-linecap:round;stroke-linejoin:round;stroke-miterlimit:1.5;">
    <path d="M140.527,303.025C213.199,383.484 285.421,383.801 357.197,304.443" style="fill:none;stroke:white;stroke-width:10px;"/>
    <g transform="matrix(1.12029,0,0,1.12029,-11.9053,-37.8856)">
        <circle cx="233.783" cy="256.974" r="199.506" style="fill:none;stroke:white;stroke-width:17.85px;"/>
    </g>
    <path d="M143.364,239.549C143.364,239.549 152.336,209.684 159.492,185.864C160.647,182.02 164.186,179.386 168.2,179.384C172.215,179.382 175.756,182.011 176.916,185.854C184.067,209.553 193.01,239.194 193.01,239.194C175.042,205.245 143.364,239.549 143.364,239.549Z" style="fill:white;stroke:white;stroke-width:10px;"/>
    <g transform="matrix(1,0,0,1,161.286,0)">
        <path d="M143.364,239.549C143.364,239.549 152.336,209.684 159.492,185.864C160.647,182.02 164.186,179.386 168.2,179.384C172.215,179.382 175.756,182.011 176.916,185.854C184.067,209.553 193.01,239.194 193.01,239.194C175.042,205.245 143.364,239.549 143.364,239.549Z" style="fill:white;stroke:white;stroke-width:10px;"/>
    </g>
</svg>
