<?xml version="1.0" encoding="UTF-8" standalone="no"?>
<!DOCTYPE svg PUBLIC "-//W3C//DTD SVG 1.1//EN" "http://www.w3.org/Graphics/SVG/1.1/DTD/svg11.dtd">
<svg width="100%" height="100%" viewBox="0 0 800 700" version="1.1" xmlns="http://www.w3.org/2000/svg" xmlns:xlink="http://www.w3.org/1999/xlink" xml:space="preserve" xmlns:serif="http://www.serif.com/" style="fill-rule:evenodd;clip-rule:evenodd;stroke-linejoin:round;stroke-miterlimit:2;">
    <g id="Ebene-1" serif:id="Ebene 1">
        <g transform="matrix(1,0,0,1,536.21,264.358)">
            <path d="M0,-13.426C-6.58,-44.457 -24.376,-68.028 -49.547,-86.302C-79.582,-108.108 -113.498,-115.676 -150.189,-112.456C-164.047,-111.24 -177.611,-108.742 -190.645,-103.957C-201.399,-100.009 -211.813,-94.825 -220.784,-87.632C-225.243,-84.056 -229.315,-80.001 -232.851,-75.506C-235.803,-71.752 -239.044,-67.907 -240.873,-63.444C-243.313,-57.486 -244.01,-50.471 -242.276,-44.23C-240.62,-38.269 -235.365,-34.838 -229.567,-33.292C-223.601,-31.7 -217.461,-33.744 -212.055,-36.246C-208.005,-38.12 -204.061,-40.219 -199.014,-42.743C-201.418,-35.157 -203.611,-28.769 -205.466,-22.284C-210.999,-2.939 -214.508,16.629 -212.037,36.899C-207.862,71.145 -185.684,91.306 -153.138,97.649C-129.521,102.25 -109.78,93.138 -92.174,78.166C-86.983,73.752 -82.307,68.861 -78.596,63.322C-79.087,62.245 -79.753,62.235 -80.369,62.425C-91.479,65.848 -102.876,67.607 -114.464,67.855C-129.592,68.178 -144.4,66.312 -157.955,59.04C-168.756,53.246 -174.71,43.566 -178.33,32.15C-180.035,26.77 -180.419,21.015 -182.95,15.457C-185.494,17.289 -185.339,19.817 -185.519,22.044C-187.838,50.683 -169.954,73.057 -141.354,77.35C-131.615,78.812 -121.854,80.004 -110.992,78.134C-117.792,85.281 -125.81,87.402 -133.7,88.345C-154.855,90.875 -184.981,79.012 -194.717,55.711C-197.605,48.8 -199.506,41.628 -199.955,34.074C-201.368,10.237 -195.758,-12.295 -187.354,-34.297C-184.748,-41.119 -181.695,-47.769 -178.931,-54.532C-178.292,-56.095 -176.47,-57.746 -177.876,-59.429C-179.26,-61.085 -181.498,-60.384 -183.424,-60.182C-194.765,-58.991 -205.195,-54.988 -215.281,-49.904C-218.178,-48.444 -221.022,-46.899 -224.433,-46.803C-228.104,-46.7 -229.562,-48.449 -229.055,-51.9C-228.328,-56.847 -225.992,-61.124 -223.121,-65.125C-213.377,-78.699 -199.462,-86.278 -184.119,-91.391C-170.604,-95.896 -156.461,-98.63 -142.231,-99.377C-135.088,-99.752 -127.913,-99.618 -120.795,-98.891C-117.204,-98.524 -113.627,-98.006 -110.082,-97.323C-107.046,-96.738 -103.765,-95.199 -100.779,-94.827C-99.835,-94.709 -98.524,-94.31 -96.649,-93.725C-68.975,-85.093 -45.715,-70.135 -28.986,-46.028C-21.778,-35.641 -16.686,-24.274 -14.057,-11.834C-12.967,-6.674 -12.71,-1.608 -13.725,3.648C-14.211,6.166 -14.872,8.939 -17.958,9.443C-20.842,9.913 -21.698,7.26 -22.835,5.39C-29.004,-4.749 -34.109,-15.509 -40.792,-25.349C-42.257,-27.506 -43.757,-29.649 -45.879,-31.222C-48.794,-33.383 -51.555,-32.519 -52.704,-29.083C-53.512,-26.667 -53.271,-24.168 -52.408,-21.886C-48.093,-10.491 -43.656,0.841 -36.903,11.119C-34.255,15.149 -30.907,18.416 -27.188,21.29C-19.359,27.343 -6.309,22.8 -1.715,12.411C1.979,4.055 1.857,-4.667 0,-13.426" style="fill:rgb(52,52,52);fill-rule:nonzero;"/>
        </g>
        <g transform="matrix(1,0,0,1,390.432,224.241)">
            <path d="M0,29.158C3.781,29.584 6.295,29.584 10.143,29.249C15.095,28.819 18.213,25.427 17.825,21.531C17.391,17.162 13.894,14.864 8.555,15.439C-3.423,16.725 -6.822,14.944 -12.376,4.451C-14.253,0.904 -17.151,-0.426 -20.881,1.024C-25.005,2.627 -25.695,6.221 -24.666,9.921C-22.027,19.404 -15.881,25.579 -6.271,28.107C-4.71,28.517 -4.224,28.682 0,29.158" style="fill:rgb(52,52,52);fill-rule:nonzero;"/>
        </g>
        <g transform="matrix(1,0,0,1,457.973,255.391)">
            <path d="M0,26.825C1.777,26.634 3.595,26.621 5.322,26.219C9.375,25.273 12.233,21.451 11.537,18.162C10.814,14.732 6.828,12.357 2.729,12.954C1.287,13.166 -0.135,13.659 -1.578,13.722C-9.343,14.057 -15.583,11.818 -18.979,4.021C-20.82,-0.208 -24.636,-1.685 -28.057,-0.215C-31.829,1.408 -33.125,5.073 -31.531,9.605C-27.239,21.8 -15.063,28.51 0,26.825" style="fill:rgb(52,52,52);fill-rule:nonzero;"/>
        </g>
        <g transform="matrix(1,0,0,1,653.227,208.541)">
            <path d="M0,97.781C-9.449,162.683 -55.544,190.338 -119.046,193.635C-109.001,198.656 -98.159,197.848 -87.961,201.105C-88.883,202.373 -89.315,203.118 -89.892,203.73C-91.219,205.143 -92.558,206.555 -93.994,207.856C-116.646,228.376 -142.951,239.306 -173.841,239.083C-208.611,238.831 -238.294,227.113 -262.116,201.475C-264.897,198.482 -267.218,195.059 -270.026,192.094C-273.338,188.596 -278.29,187.893 -281.895,189.708C-285.56,191.552 -282.066,195.404 -281.36,198.344C-281.16,199.177 -280.802,199.973 -280.484,200.775C-276.958,209.697 -276.982,209.663 -286.297,212.772C-317.327,223.13 -347.815,221.88 -377.562,208.161C-397.018,199.187 -412.449,185.385 -424.261,167.542C-425.185,166.146 -426.762,164.677 -425.939,162.912C-424.916,160.719 -422.55,161.51 -420.711,161.458C-416.185,161.328 -411.647,161.5 -407.126,161.291C-400.222,160.97 -393.64,159.128 -387.097,157.058C-388.063,156.284 -388.902,156.109 -389.739,156.114C-428.795,156.322 -461.029,142.221 -485.519,111.198C-508.007,82.713 -512.875,50.743 -503.309,16.702C-495.29,-11.828 -476.518,-32.706 -450.774,-46.928C-429.969,-58.423 -407.573,-63.702 -383.57,-61.44C-377.63,-60.881 -371.692,-59.686 -365.626,-59.77C-373.886,-66.568 -383.239,-70.895 -393.129,-73.944C-397.812,-75.387 -398.589,-77.074 -395.788,-81.119C-382.671,-100.058 -366.334,-115.324 -345.816,-126.053C-318.276,-140.454 -288.803,-143.683 -258.448,-140.82C-251.241,-140.14 -241.478,-138.791 -226.544,-132.734C-224.084,-131.736 -216.835,-128.768 -215.509,-128.114C-202.251,-121.57 -190.302,-113.29 -179.645,-103.007C-171.449,-95.101 -164.567,-86.149 -157.607,-77.065C-157.404,-83.972 -160.048,-90.011 -162.35,-96.131C-163.458,-99.075 -163.774,-101.066 -159.329,-100.705C-149.848,-99.935 -140.451,-98.789 -131.371,-95.869C-97.012,-84.821 -71.996,-63.389 -58.138,-29.683C-55.414,-23.06 -55.923,-22.425 -63.214,-22.407C-69.167,-22.393 -75.12,-22.405 -82.884,-22.405C-25.38,-1.527 8.895,36.688 0,97.781M-10.78,1.351C-15.646,-4.872 -20.676,-11.111 -27.394,-15.28C-35.909,-20.566 -38.246,-29.3 -41.832,-37.58C-62.823,-86.054 -100.296,-112.961 -152.08,-120.118C-163.771,-121.734 -173.87,-124.453 -183.77,-131.701C-211.861,-152.272 -244.084,-161.272 -285.04,-161.48C-335.856,-159.846 -380.819,-136.039 -413.171,-88.902C-416.324,-84.308 -419.264,-80.565 -425.474,-78.657C-475.062,-63.425 -509.146,-32.126 -521.311,19.329C-534.596,75.528 -507.67,131.427 -457.791,159.545C-450.558,163.622 -445.269,168.585 -440.639,175.677C-414.326,215.979 -376.622,236.856 -328.547,239.065C-308.803,239.972 -289.704,236.931 -271.425,229.341C-267.648,227.772 -264.926,228.698 -261.781,231.005C-236.383,249.629 -207.704,259.261 -176.356,258.548C-134.839,257.601 -99.369,242.271 -72.168,210.008C-68.322,205.446 -63.618,202.438 -58.293,199.875C-24.208,183.467 0.231,158 11.858,121.728C25.946,77.774 17.55,37.575 -10.78,1.351" style="fill:rgb(56,199,239);fill-rule:nonzero;"/>
        </g>
        <g transform="matrix(-0.999916,0.0129453,0.0129453,0.999916,456.412,576.686)">
            <path d="M0.331,-93.97C25.99,-94.215 47.844,-72.656 48.053,-46.894C48.26,-21.416 26.698,-0.245 0.331,-0.036C-26.154,0.174 -46.892,-20.363 -46.994,-46.898C-47.093,-73.033 -26.3,-93.716 0.331,-93.97" style="fill:rgb(56,199,239);fill-rule:nonzero;"/>
        </g>
        <g transform="matrix(-0.921096,0.389335,0.389335,0.921096,509.914,594.393)">
            <path d="M10.245,-12.518C11.452,-12.147 12.532,-11.403 13.325,-10.419C18.229,-4.331 16.454,2.972 10.245,5.695C5.47,7.79 -0.635,5.27 -2.716,0.346C-5.589,-6.448 0.734,-15.452 10.245,-12.518" style="fill:rgb(56,199,239);fill-rule:nonzero;"/>
        </g>
        <g transform="matrix(1,0,0,1,59.3325,579.8)">
            <path d="M0,-96.557C-5.597,-96.557 -10.37,-94.582 -14.322,-90.631C-18.273,-86.597 -20.25,-81.822 -20.25,-76.307C-20.25,-68.404 -16.544,-62.479 -9.138,-58.527C-6.998,-57.457 0.371,-55.235 12.967,-51.86C21.608,-49.389 27.822,-46.302 31.611,-42.599C36.96,-37.578 39.636,-30.126 39.636,-20.249C39.636,-10.372 36.178,-1.933 29.266,5.062C22.268,11.977 13.831,15.435 3.952,15.435L-28.275,15.435C-30.335,15.435 -32.104,14.694 -33.584,13.214C-35.065,11.732 -35.807,9.961 -35.807,7.904L-35.807,7.656C-35.807,5.515 -35.065,3.704 -33.584,2.223C-32.104,0.743 -30.335,0.001 -28.275,0.001L5.187,0.001C10.784,0.001 15.557,-1.976 19.509,-5.927C23.46,-9.876 25.437,-14.652 25.437,-20.249C25.437,-27.904 21.691,-33.541 14.199,-37.164C12.636,-37.906 5.31,-40.128 -7.78,-43.834C-16.259,-46.385 -22.473,-49.515 -26.424,-53.218C-31.776,-58.567 -34.449,-66.264 -34.449,-76.307C-34.449,-86.187 -30.991,-94.582 -24.079,-101.498C-17.081,-108.494 -8.642,-111.992 1.235,-111.992L23.957,-111.992C26.096,-111.992 27.908,-111.252 29.388,-109.769C30.869,-108.288 31.611,-106.477 31.611,-104.337L31.611,-104.088C31.611,-102.032 30.869,-100.263 29.388,-98.78C27.908,-97.298 26.096,-96.557 23.957,-96.557L0,-96.557Z" style="fill:rgb(52,52,52);fill-rule:nonzero;"/>
        </g>
        <g transform="matrix(1,0,0,1,134.16,475.339)">
            <path d="M0,112.365C0,114.422 -0.742,116.193 -2.223,117.674C-3.703,119.155 -5.475,119.896 -7.532,119.896L-7.903,119.896C-9.959,119.896 -11.731,119.155 -13.212,117.674C-14.693,116.193 -15.435,114.422 -15.435,112.365L-15.435,44.821C-15.435,30.334 -10.331,17.986 -0.123,7.779C10.083,-2.426 22.43,-7.531 36.92,-7.531C51.324,-7.531 63.632,-2.426 73.84,7.779C84.045,17.986 89.152,30.334 89.152,44.821L89.152,112.365C89.152,114.422 88.41,116.193 86.929,117.674C85.446,119.155 83.674,119.896 81.617,119.896L81.372,119.896C79.229,119.896 77.42,119.155 75.939,117.674C74.456,116.193 73.717,114.422 73.717,112.365L73.717,44.821C73.717,34.696 70.134,26.014 62.973,18.768C55.729,11.527 47.045,7.904 36.92,7.904C26.712,7.904 17.985,11.527 10.744,18.768C3.581,26.014 0,34.696 0,44.821L0,112.365Z" style="fill:rgb(52,52,52);fill-rule:nonzero;"/>
        </g>
        <g transform="matrix(1,0,0,1,308.015,579.555)">
            <path d="M0,-96.067C-13.334,-96.067 -24.738,-91.331 -34.201,-81.868C-43.587,-72.399 -48.277,-60.999 -48.277,-47.664C-48.277,-34.409 -43.587,-23.048 -34.201,-13.583C-24.738,-4.116 -13.334,0.617 0,0.617C13.417,0.617 24.778,-4.116 34.082,-13.583C43.544,-23.048 48.28,-34.409 48.28,-47.664C48.28,-60.999 43.544,-72.399 34.082,-81.868C24.778,-91.331 13.417,-96.067 0,-96.067M0,-111.747C17.617,-111.747 32.641,-105.533 45.071,-93.102C57.498,-80.672 63.715,-65.649 63.715,-48.035C63.715,-30.418 57.498,-15.394 45.071,-2.963C32.641,9.466 17.617,15.68 0,15.68C-17.617,15.68 -32.641,9.466 -45.068,-2.963C-57.498,-15.394 -63.712,-30.418 -63.712,-48.035C-63.712,-65.649 -57.498,-80.672 -45.068,-93.102C-32.641,-105.533 -17.617,-111.747 0,-111.747" style="fill:rgb(52,52,52);fill-rule:nonzero;"/>
        </g>
        <g transform="matrix(1,0,0,1,635.722,579.798)">
            <path d="M0,-96.555C0.082,-92.604 -1.481,-89.023 -4.69,-85.814L-87.791,0.126L-6.79,0.126C-4.65,0.126 -2.882,0.828 -1.481,2.225C0,3.706 0.741,5.517 0.741,7.658L0.741,7.906C0.741,10.049 0,11.857 -1.481,13.338C-2.882,14.738 -4.65,15.437 -6.79,15.437L-86.433,15.437C-93.349,15.6 -98.164,12.516 -100.881,6.176C-103.597,-0.162 -102.526,-5.8 -97.671,-10.739L-14.447,-96.555L-90.136,-96.555C-92.196,-96.555 -93.965,-97.296 -95.448,-98.778C-96.929,-100.261 -97.671,-102.03 -97.671,-104.086L-97.671,-104.457C-97.671,-106.515 -96.929,-108.286 -95.448,-109.767C-93.965,-111.25 -92.196,-111.99 -90.136,-111.99L-15.929,-111.99C-9.013,-112.155 -4.197,-109.068 -1.481,-102.729C-0.576,-100.589 -0.083,-98.532 0,-96.555" style="fill:rgb(52,52,52);fill-rule:nonzero;"/>
        </g>
        <g transform="matrix(1,0,0,1,716.352,579.555)">
            <path d="M0,-96.067C-13.335,-96.067 -24.738,-91.331 -34.201,-81.868C-43.588,-72.399 -48.277,-60.999 -48.277,-47.664C-48.277,-45.276 -47.867,-41.282 -47.045,-35.687L40.007,-75.075C28.318,-89.068 14.98,-96.067 0,-96.067M57.911,-74.459C58.816,-72.564 58.898,-70.63 58.157,-68.656C57.418,-66.758 56.1,-65.36 54.206,-64.456C42.683,-59.269 27.536,-52.436 8.767,-43.958C-14.53,-33.421 -31.074,-25.972 -40.869,-21.611C-29.346,-6.793 -15.723,0.617 0,0.617C10.453,0.617 19.922,-2.47 28.4,-8.644C36.549,-14.572 42.27,-22.309 45.564,-31.858C46.8,-35.316 49.268,-37.045 52.974,-37.045C55.606,-37.045 57.706,-35.972 59.27,-33.833C60.75,-31.693 61.038,-29.387 60.134,-26.92C55.77,-14.324 48.157,-4.116 37.29,3.704C26.096,11.689 13.665,15.68 0,15.68C-17.617,15.68 -32.641,9.466 -45.068,-2.963C-57.498,-15.394 -63.712,-30.418 -63.712,-48.035C-63.712,-65.649 -57.498,-80.672 -45.068,-93.102C-32.641,-105.533 -17.617,-111.747 0,-111.747C12.676,-111.747 24.284,-108.292 34.82,-101.376C45.11,-94.626 52.808,-85.651 57.911,-74.459" style="fill:rgb(52,52,52);fill-rule:nonzero;"/>
        </g>
        <g transform="matrix(1,0,0,1,48.1294,642.945)">
            <path d="M0,-10.527C0.045,-13.497 -2.148,-16.806 -6.579,-16.806L-16.71,-16.806L-16.71,-4.416L-6.753,-4.416C-2.148,-4.416 0,-7.173 0,-10.527M-9.255,-1.104L-16.71,-1.104L-16.71,9.589L-20.527,9.589L-20.527,-20.116L-6.579,-20.116C0.351,-20.116 3.817,-15.448 3.817,-10.61C3.86,-6.114 1.318,-1.911 -4.999,-1.403L5.132,9.589L0.308,9.589L-9.255,-1.104Z" style="fill:rgb(56,199,239);fill-rule:nonzero;"/>
        </g>
        <g transform="matrix(1,0,0,1,76.3589,652.534)">
            <path d="M0,-29.705L21.58,-29.705L21.58,-26.309L3.772,-26.309L3.772,-17.017L20.835,-17.017L20.835,-13.58L3.772,-13.58L3.772,-3.523L22.282,-3.523L22.282,0L0,0L0,-29.705Z" style="fill:rgb(56,199,239);fill-rule:nonzero;"/>
        </g>
        <g transform="matrix(1,0,0,1,143.76,652.577)">
            <path d="M0,-29.748L0,-26.227L-17.503,-26.227L-17.503,-15.871L-0.745,-15.871L-0.745,-12.436L-17.503,-12.436L-17.503,0L-21.317,0L-21.317,-29.748L0,-29.748Z" style="fill:rgb(56,199,239);fill-rule:nonzero;"/>
        </g>
        <g transform="matrix(1,0,0,1,187.955,642.945)">
            <path d="M0,-10.527C0.046,-13.497 -2.148,-16.806 -6.579,-16.806L-16.712,-16.806L-16.712,-4.416L-6.753,-4.416C-2.148,-4.416 0,-7.173 0,-10.527M-9.255,-1.104L-16.712,-1.104L-16.712,9.589L-20.527,9.589L-20.527,-20.116L-6.579,-20.116C0.351,-20.116 3.817,-15.448 3.817,-10.61C3.86,-6.114 1.318,-1.911 -4.998,-1.403L5.133,9.589L0.308,9.589L-9.255,-1.104Z" style="fill:rgb(56,199,239);fill-rule:nonzero;"/>
        </g>
        <g transform="matrix(1,0,0,1,216.185,652.534)">
            <path d="M0,-29.705L21.58,-29.705L21.58,-26.309L3.771,-26.309L3.771,-17.017L20.835,-17.017L20.835,-13.58L3.771,-13.58L3.771,-3.523L22.282,-3.523L22.282,0L0,0L0,-29.705Z" style="fill:rgb(56,199,239);fill-rule:nonzero;"/>
        </g>
        <g transform="matrix(1,0,0,1,272.576,649.815)">
            <path d="M0,-24.312C-3.906,-24.312 -8.071,-22.829 -8.071,-19.22C-8.071,-15.997 -4.257,-15.063 0.262,-14.341C6.402,-13.406 12.456,-12.219 12.456,-5.514C12.413,1.15 5.834,3.313 -0.046,3.313C-5.483,3.313 -10.662,1.404 -13.03,-3.563L-9.872,-5.343C-7.897,-1.823 -3.775,-0.125 0,-0.125C3.729,-0.125 8.684,-1.269 8.684,-5.64C8.727,-9.333 4.43,-10.393 -0.177,-11.072C-6.097,-11.965 -11.846,-13.28 -11.846,-19.305C-11.931,-25.502 -5.395,-27.625 -0.089,-27.625C4.473,-27.625 8.815,-26.732 11.534,-22.233L8.641,-20.496C6.972,-23.083 3.42,-24.27 0,-24.312" style="fill:rgb(56,199,239);fill-rule:nonzero;"/>
        </g>
        <g transform="matrix(1,0,0,1,329.974,636.238)">
            <path d="M0,2.887L-17.545,2.887L-17.545,16.296L-21.36,16.296L-21.36,-13.409L-17.545,-13.409L-17.545,-0.551L0,-0.551L0,-13.409L3.817,-13.409L3.817,16.296L0,16.296L0,2.887Z" style="fill:rgb(56,199,239);fill-rule:nonzero;"/>
        </g>
        <g transform="matrix(1,0,0,1,383.504,652.408)">
            <path d="M0,-29.453L0,-29.579L4.647,-29.579L13.86,-15.491L23.292,-29.579L27.939,-29.579L27.939,-29.453L15.834,-11.925L15.834,0.126L11.886,0.126L11.886,-11.925L0,-29.453Z" style="fill:rgb(56,199,239);fill-rule:nonzero;"/>
        </g>
        <g transform="matrix(1,0,0,1,445.507,649.732)">
            <path d="M0,-24.018C-7.806,-24.018 -11.843,-18.456 -11.843,-11.964C-11.843,-5.939 -8.07,-0.085 0,-0.085C8.071,-0.085 11.712,-6.111 11.712,-11.964C11.757,-17.993 8.028,-23.933 0,-24.018M15.529,-11.964C15.486,-4.199 10.484,3.396 -0.043,3.396C-10.57,3.396 -15.659,-4.159 -15.659,-11.964C-15.659,-20.58 -9.694,-27.414 0,-27.414C10.396,-27.371 15.571,-19.816 15.529,-11.964" style="fill:rgb(56,199,239);fill-rule:nonzero;"/>
        </g>
        <g transform="matrix(1,0,0,1,509.484,653.045)">
            <path d="M0,-30.176L0,-12.351C0,-4.117 -5.746,0.04 -12.459,0.04C-18.992,0.04 -25.046,-4.034 -25.046,-12.351L-25.046,-30.176L-21.274,-30.176L-21.274,-12.351C-21.274,-6.45 -17.194,-3.356 -12.459,-3.356C-7.72,-3.356 -3.771,-6.579 -3.771,-12.394L-3.771,-30.216L-0.043,-30.216L0,-30.176Z" style="fill:rgb(56,199,239);fill-rule:nonzero;"/>
        </g>
        <g transform="matrix(1,0,0,1,555.346,642.945)">
            <path d="M0,-10.527C0.045,-13.497 -2.148,-16.806 -6.579,-16.806L-16.713,-16.806L-16.713,-4.416L-6.753,-4.416C-2.148,-4.416 0,-7.173 0,-10.527M-9.255,-1.104L-16.713,-1.104L-16.713,9.589L-20.527,9.589L-20.527,-20.116L-6.579,-20.116C0.351,-20.116 3.817,-15.448 3.817,-10.61C3.859,-6.114 1.317,-1.911 -4.999,-1.403L5.132,9.589L0.308,9.589L-9.255,-1.104Z" style="fill:rgb(56,199,239);fill-rule:nonzero;"/>
        </g>
        <g transform="matrix(1,0,0,1,628.041,632.164)">
            <path d="M0,11.035L-0.79,11.035L-11.931,-4.074L-11.931,20.37L-15.702,20.37L-15.702,-9.335L-11.141,-9.335L-0.351,5.939L10.354,-9.335L14.915,-9.335L14.915,20.37L11.141,20.37L11.141,-3.988L0,11.035Z" style="fill:rgb(56,199,239);fill-rule:nonzero;"/>
        </g>
        <g transform="matrix(1,0,0,1,0,575.363)">
            <rect x="668.639" y="47.466" width="3.814" height="29.705" style="fill:rgb(56,199,239);"/>
        </g>
        <g transform="matrix(1,0,0,1,700.822,652.534)">
            <path d="M0,-29.705L18.818,-6.961L18.818,-29.705L22.59,-29.705L22.59,0L19.957,0L1.096,-22.661L1.096,0L-2.676,0L-2.676,-29.705L0,-29.705Z" style="fill:rgb(56,199,239);fill-rule:nonzero;"/>
        </g>
        <g transform="matrix(1,0,0,1,771.903,638.02)">
            <path d="M0,-0.72C0,-6.238 -3.771,-11.67 -11.625,-11.67L-18.991,-11.67L-18.991,10.823L-11.625,10.823C-3.466,10.823 0,4.966 0,-0.72M-22.809,-15.234L-11.625,-15.234C-1.184,-15.234 3.813,-8.021 3.813,-0.678C3.813,6.917 -0.878,14.514 -11.625,14.514L-22.809,14.514L-22.809,-15.191L-22.809,-15.234Z" style="fill:rgb(56,199,239);fill-rule:nonzero;"/>
        </g>
    </g>
</svg>
