<?xml version="1.0" encoding="UTF-8" standalone="no"?>
<!DOCTYPE svg PUBLIC "-//W3C//DTD SVG 1.1//EN" "http://www.w3.org/Graphics/SVG/1.1/DTD/svg11.dtd">
<svg width="100%" height="100%" viewBox="0 0 1154 929" version="1.1" xmlns="http://www.w3.org/2000/svg" xmlns:xlink="http://www.w3.org/1999/xlink" xml:space="preserve" xmlns:serif="http://www.serif.com/" style="fill-rule:evenodd;clip-rule:evenodd;stroke-linejoin:round;stroke-miterlimit:1.41421;">
    <g transform="matrix(1.14,0,0,1,-843.04,-352.363)">
        <text x="740.412px" y="1280px" style="font-family:'Bahnschrift', sans-serif;font-size:64px;fill:rgb(64,195,234);stroke:rgb(64,195,234);stroke-width:0px;">R<tspan x="805.939px 867.997px 927.586px 993.113px 1055.17px 1118.38px " y="1280px 1280px 1280px 1280px 1280px 1280px ">EFRESH</tspan></text>
    </g>
    <g transform="matrix(1.14,0,0,1,-282.689,-352.934)">
        <text x="740.412px" y="1280px" style="font-family:'Bahnschrift', sans-serif;font-size:64px;fill:rgb(64,195,234);stroke:rgb(64,195,234);stroke-width:0px;">Y<tspan x="795.49px 860.483px 926.1px " y="1280px 1280px 1280px ">OUR</tspan></text>
    </g>
    <g transform="matrix(1.14,0,0,1,53.0282,-352.363)">
        <text x="740.412px" y="1280px" style="font-family:'Bahnschrift', sans-serif;font-size:64px;fill:rgb(64,195,234);stroke:rgb(64,195,234);stroke-width:0px;">M<tspan x="814.095px 855.528px 924.148px " y="1280px 1280px 1280px ">IND</tspan></text>
    </g>
    <g transform="matrix(1,0,0,1,-703.625,-294.101)">
        <path d="M1846.27,1064.71C1831.8,1099.03 1808.37,1118.64 1767.78,1122.36C1719.63,1120.88 1684.01,1089.28 1678.38,1038.92C1680.4,994.989 1702.01,964.833 1745.49,952.07C1787.1,944.166 1821.75,961.483 1843.4,1000.12L1697.89,1065.36" style="fill:none;stroke:black;stroke-width:22.67px;stroke-linecap:round;stroke-miterlimit:1.5;"/>
    </g>
    <g transform="matrix(1,0,0,1,-703.625,-294.101)">
        <path d="M862,1122C862,1122 861.363,1067.09 860.807,1019.26C860.594,1000.91 867.747,983.231 880.666,970.188C893.585,957.145 911.192,949.823 929.55,949.861C929.551,949.861 929.552,949.861 929.554,949.861C967.378,949.938 998,980.622 998,1018.45C998,1066.47 998,1122.15 998,1122.15" style="fill:none;stroke:black;stroke-width:22.67px;stroke-linecap:round;stroke-miterlimit:1.5;"/>
    </g>
    <g transform="matrix(1.1051,0,0,1.1051,-823.747,-429.463)">
        <circle cx="1343.93" cy="1057.9" r="65.152" style="fill:rgb(64,195,234);"/>
    </g>
    <g transform="matrix(0.23023,0,0,0.23023,424.959,594.035)">
        <circle cx="1343.93" cy="1057.9" r="65.152" style="fill:rgb(64,195,234);"/>
    </g>
    <g transform="matrix(1,0,0,1,-703.625,-294.101)">
        <path d="M1205.54,654.71C1205.63,653.681 1206.46,652.875 1207.5,652.809C1208.53,652.742 1209.46,653.434 1209.69,654.442C1227.02,732.52 1278.07,739.936 1366.71,724.344C1320.08,794.609 1209.33,799.14 1171.86,711.184C1157.34,670.484 1161.78,621.284 1184.65,562.033C1144.4,580.731 1119.92,580.109 1117.02,549.603C1117.88,493.112 1200.86,459.67 1253.38,454.556C1320.73,447.812 1376.01,463.933 1420.81,499.886C1464.49,535.51 1490.46,577.655 1490.63,629.297C1488.18,652.936 1476.84,664.499 1455.54,662.564C1441.37,661.276 1420.03,622.168 1407.62,587.9C1406.24,584.083 1407.93,579.834 1411.57,578.024C1415.21,576.215 1419.62,577.421 1421.83,580.827C1437.92,605.551 1448.41,628.404 1456.63,638.35C1458.34,640.405 1461.09,641.289 1463.68,640.622C1466.27,639.955 1468.24,637.856 1468.75,635.229C1470.82,621.158 1466.73,596.133 1452.98,568.247C1428.11,524.469 1390.3,497.34 1342.21,483.435C1282.46,466.956 1225.42,472.29 1171.49,502.445C1154.72,513.964 1142.28,526.859 1137.73,546.906C1137.26,548.941 1137.82,551.074 1139.22,552.623C1140.62,554.173 1142.68,554.944 1144.75,554.692C1159.46,552.912 1168.87,542.526 1208.99,533.938C1211.18,533.458 1213.47,534.254 1214.89,535.999C1216.31,537.743 1216.63,540.139 1215.72,542.195C1188.93,602.723 1175.24,658.22 1187.58,700.583C1193.78,724.189 1208.34,742.544 1235.1,753.224C1271.09,769.62 1302.05,766.53 1318.45,746.279C1288.54,749.222 1263.64,745.376 1243.88,734.58C1212.91,714.966 1202.25,688.716 1205.54,654.71Z"/>
    </g>
    <g transform="matrix(1,0,0,1,-703.625,-294.101)">
        <path d="M1252.45,561.317C1250.25,557.033 1245.17,555.089 1240.67,556.8C1236.16,558.512 1233.66,563.332 1234.86,568.001C1238.31,581.208 1245.13,592.822 1254.11,597.493C1262.14,601.667 1276.72,602.913 1291.31,601.109C1296.19,600.51 1299.74,596.185 1299.37,591.283C1299,586.38 1294.85,582.629 1289.94,582.761C1280.59,583.02 1272.11,582.815 1267.27,580.311C1260.84,576.983 1256.53,569.483 1252.45,561.317Z"/>
    </g>
    <g transform="matrix(0.984566,-0.175011,0.175011,0.984566,-691.513,-21.2414)">
        <path d="M1252.45,561.317C1250.25,557.033 1245.17,555.089 1240.67,556.8C1236.16,558.512 1233.66,563.332 1234.86,568.001C1238.31,581.208 1245.13,592.822 1254.11,597.493C1262.14,601.667 1276.72,602.913 1291.31,601.109C1296.19,600.51 1299.74,596.185 1299.37,591.283C1299,586.38 1294.85,582.629 1289.94,582.761C1280.59,583.02 1272.11,582.815 1267.27,580.311C1260.84,576.983 1256.53,569.483 1252.45,561.317Z"/>
    </g>
    <g transform="matrix(1,0,0,1,-703.625,-294.101)">
        <path d="M1033.5,408.927C1029.3,415.292 1022.98,419.959 1015.65,422.098C825.442,477.583 821.889,710.196 969.936,786.605C978.873,791.247 986.442,798.142 991.894,806.609C1047.66,893.222 1141.99,931.941 1251.34,892.362C1256.86,890.351 1263.02,891.323 1267.65,894.934C1344.18,954.023 1475.03,957.356 1553.68,867.594C1561.09,859.12 1570.07,852.17 1580.13,847.132C1731.71,771.565 1724.27,592.899 1622.01,513.767C1616.04,509.131 1611.43,502.979 1608.65,495.953C1573.83,408.029 1518.64,367.287 1418.74,355.06C1411.83,354.219 1405.26,351.621 1399.63,347.515C1283.39,263.225 1122.51,275.092 1033.5,408.927ZM1105.15,449.61C950.985,425.607 890.986,542.034 889.536,611.082C889.536,611.082 883.851,669.634 934.927,722.55C980.298,769.556 1030.83,780.302 1073.91,781.576C1065.13,787.626 1046.74,789.939 1019.51,788.808C1018.2,788.76 1016.97,789.442 1016.32,790.579C1015.67,791.715 1015.7,793.12 1016.41,794.225C1065.51,870.762 1142.84,893.383 1237.88,865.528C1239.52,865.043 1240.89,863.897 1241.65,862.365C1242.42,860.833 1242.51,859.053 1241.91,857.45C1240.4,853.418 1238.27,847.739 1235.9,841.419C1234.46,837.56 1235.98,833.219 1239.51,831.099C1243.04,828.979 1247.59,829.683 1250.31,832.774C1277.6,863.775 1314.94,897.928 1362.99,903.874C1400.91,908.567 1470.11,918.959 1535.93,848.683C1518.89,847.971 1505.87,848.115 1486.22,837.353C1704.68,840.656 1741.46,561.281 1543.4,507.681C1554.96,505.676 1566.3,504.863 1577.22,506.203C1578.88,506.437 1580.54,505.764 1581.57,504.44C1582.6,503.117 1582.84,501.343 1582.2,499.793C1554.09,432.23 1498.05,390.295 1420.07,386.421C1419.11,386.376 1418.2,386.855 1417.7,387.672C1417.19,388.489 1417.17,389.516 1417.64,390.353C1423.13,400.404 1425.27,411.294 1426.63,423.009C1340.69,291.502 1151.71,289.749 1059.5,417.5C1058.44,418.981 1058.15,420.878 1058.71,422.609C1059.28,424.34 1060.63,425.699 1062.37,426.268C1080.83,432.334 1096.31,439.616 1105.15,449.61Z" style="fill:rgb(64,195,234);"/>
    </g>
    <g transform="matrix(1,0,0,1,-703.625,-294.101)">
        <path d="M798,949.572C798,949.572 771.209,949.662 759.438,949.701C754.352,949.718 749.312,950.659 744.563,952.477C726.089,959.627 716.76,974.405 716.908,991.641C717.106,1014.6 725.105,1024.16 743.255,1030.44C743.255,1030.44 765.644,1037.86 779.829,1042.57C797.143,1048.31 808.61,1064.77 808.001,1083C808,1083 808,1083 808,1083C807.442,1099.7 799.209,1109.6 786.439,1116.75C780.13,1120.29 773.014,1122.14 765.779,1122.13C749.04,1122.09 714.958,1122 714.958,1122" style="fill:none;stroke:black;stroke-width:22.67px;stroke-linecap:round;stroke-miterlimit:1.5;"/>
    </g>
    <g transform="matrix(1.10795,0,0,1.09551,-805.034,-387.067)">
        <path d="M1120,942C1168.57,942 1208,981.88 1208,1031C1208,1080.12 1168.57,1120 1120,1120C1071.43,1120 1032,1080.12 1032,1031C1032,981.88 1071.43,942 1120,942ZM1120,962.47C1157.4,962.47 1187.76,993.177 1187.76,1031C1187.76,1068.82 1157.4,1099.53 1120,1099.53C1082.6,1099.53 1052.24,1068.82 1052.24,1031C1052.24,993.177 1082.6,962.47 1120,962.47Z"/>
    </g>
    <g transform="matrix(1,0,0,1,-703.625,-294.101)">
        <path d="M1504,950C1504,950 1572.7,949.866 1615.2,949.783C1620.75,949.772 1625.77,953.091 1627.93,958.204C1630.09,963.317 1628.98,969.228 1625.1,973.202C1591.53,1007.63 1529.59,1071.14 1498.63,1102.89C1495.48,1106.13 1494.56,1110.95 1496.32,1115.12C1498.08,1119.29 1502.17,1122 1506.69,1122C1550.3,1122 1632,1122 1632,1122" style="fill:none;stroke:black;stroke-width:22.67px;stroke-linecap:round;stroke-miterlimit:1.5;"/>
    </g>
</svg>
