<?xml version="1.0" encoding="UTF-8" standalone="no"?>
<!DOCTYPE svg PUBLIC "-//W3C//DTD SVG 1.1//EN" "http://www.w3.org/Graphics/SVG/1.1/DTD/svg11.dtd">
<svg width="48px" height="54px" viewBox="0 0 451 641" version="1.1" xmlns="http://www.w3.org/2000/svg" xmlns:xlink="http://www.w3.org/1999/xlink" xml:space="preserve" xmlns:serif="http://www.serif.com/" style="fill-rule:evenodd;clip-rule:evenodd;stroke-linecap:round;stroke-linejoin:round;stroke-miterlimit:1.5;">
    <g transform="matrix(1,0,0,1,-1064.5,-419.5)">
        <g transform="matrix(1.125,0,0,1,-172.5,60)">
            <path d="M1100,566.909C1100,452.636 1182.34,360 1283.92,360C1294.28,360 1304.71,360 1315.08,360C1417.21,360 1500,453.143 1500,568.041C1500,568.041 1500,568.041 1500,568.041C1500,588.994 1495.2,609.593 1486.07,627.854C1451.13,697.736 1359.68,880.632 1319.46,961.077C1315.51,968.987 1308.07,973.882 1300,973.882C1291.93,973.882 1284.49,968.987 1280.54,961.077C1240.5,881.008 1149.72,699.442 1114.42,628.841C1104.97,609.933 1100,588.604 1100,566.91C1100,566.909 1100,566.909 1100,566.909Z" style="fill:rgb(56, 199, 239);stroke:black;stroke-width:0.94px;"/>
        </g>
        <path d="M1205.54,654.71C1205.63,653.681 1206.46,652.875 1207.5,652.809C1208.53,652.742 1209.46,653.434 1209.69,654.442C1227.02,732.52 1278.07,739.936 1366.71,724.344C1320.08,794.609 1209.33,799.14 1171.86,711.184C1157.34,670.484 1161.78,621.284 1184.65,562.033C1144.4,580.731 1119.92,580.109 1117.02,549.603C1117.88,493.112 1200.86,459.67 1253.38,454.556C1320.73,447.812 1376.01,463.933 1420.81,499.886C1464.49,535.51 1490.46,577.655 1490.63,629.297C1488.18,652.936 1476.84,664.499 1455.54,662.564C1441.37,661.276 1420.03,622.168 1407.62,587.9C1406.24,584.083 1407.93,579.834 1411.57,578.024C1415.21,576.215 1419.62,577.421 1421.83,580.827C1437.92,605.551 1448.41,628.404 1456.63,638.35C1458.34,640.405 1461.09,641.289 1463.68,640.622C1466.27,639.955 1468.24,637.856 1468.75,635.229C1470.82,621.158 1466.73,596.133 1452.98,568.247C1428.11,524.469 1390.3,497.34 1342.21,483.435C1282.46,466.956 1225.42,472.29 1171.49,502.445C1154.72,513.964 1142.28,526.859 1137.73,546.906C1137.26,548.941 1137.82,551.074 1139.22,552.623C1140.62,554.173 1142.68,554.944 1144.75,554.692C1159.46,552.912 1168.87,542.526 1208.99,533.938C1211.18,533.458 1213.47,534.254 1214.89,535.999C1216.31,537.743 1216.63,540.139 1215.72,542.195C1188.93,602.723 1175.24,658.22 1187.58,700.583C1193.78,724.189 1208.34,742.544 1235.1,753.224C1271.09,769.62 1302.05,766.53 1318.45,746.279C1288.54,749.222 1263.64,745.376 1243.88,734.58C1212.91,714.966 1202.25,688.716 1205.54,654.71Z" style="fill:white;"/>
        <path d="M1252.45,561.317C1250.25,557.033 1245.17,555.089 1240.67,556.8C1236.16,558.512 1233.66,563.332 1234.86,568.001C1238.31,581.208 1245.13,592.822 1254.11,597.493C1262.14,601.667 1276.72,602.913 1291.31,601.109C1296.19,600.51 1299.74,596.185 1299.37,591.283C1299,586.38 1294.85,582.629 1289.94,582.761C1280.59,583.02 1272.11,582.815 1267.27,580.311C1260.84,576.983 1256.53,569.483 1252.45,561.317Z" style="fill:white;"/>
        <g transform="matrix(0.984566,-0.175011,0.175011,0.984566,12.1123,272.859)">
            <path d="M1252.45,561.317C1250.25,557.033 1245.17,555.089 1240.67,556.8C1236.16,558.512 1233.66,563.332 1234.86,568.001C1238.31,581.208 1245.13,592.822 1254.11,597.493C1262.14,601.667 1276.72,602.913 1291.31,601.109C1296.19,600.51 1299.74,596.185 1299.37,591.283C1299,586.38 1294.85,582.629 1289.94,582.761C1280.59,583.02 1272.11,582.815 1267.27,580.311C1260.84,576.983 1256.53,569.483 1252.45,561.317Z" style="fill:white;"/>
        </g>
    </g>
</svg>
