<?xml version="1.0" encoding="UTF-8" standalone="no"?>
<!DOCTYPE svg PUBLIC "-//W3C//DTD SVG 1.1//EN" "http://www.w3.org/Graphics/SVG/1.1/DTD/svg11.dtd">
<svg width="100%" height="100%" viewBox="0 0 512 512" version="1.1" xmlns="http://www.w3.org/2000/svg" xmlns:xlink="http://www.w3.org/1999/xlink" xml:space="preserve" xmlns:serif="http://www.serif.com/" style="fill-rule:evenodd;clip-rule:evenodd;stroke-linecap:round;stroke-linejoin:round;stroke-miterlimit:1.5;">
    <g transform="matrix(0.707107,0.707107,-0.707107,0.707107,257.86,-110.609)">
        <g transform="matrix(0.945987,0,0,0.904475,14.481,32.3307)">
            <path d="M321.932,314.104L192.739,314.104L192.739,370.768C192.739,408.08 221.659,438.327 257.334,438.327L257.337,438.327C293.012,438.327 321.932,408.08 321.932,370.768L321.932,314.104Z" style="fill:none;stroke:white;stroke-width:32.42px;"/>
        </g>
        <path d="M228.379,256L227.925,316.43" style="fill:none;stroke:white;stroke-width:30px;"/>
        <g transform="matrix(1,0,0,1,59.0594,0)">
            <path d="M228.379,256L227.925,316.43" style="fill:none;stroke:white;stroke-width:30px;"/>
        </g>
        <g transform="matrix(1,0,0,1.48933,29.992,54.1813)">
            <path d="M228.379,256L227.925,316.43" style="fill:none;stroke:white;stroke-width:23.65px;"/>
        </g>
    </g>
    <g transform="matrix(0.707107,0.707107,0.707107,-0.707107,-110.609,257.86)">
        <g transform="matrix(0.945987,0,0,0.904475,14.481,32.3307)">
            <path d="M321.932,314.104L192.739,314.104L192.739,370.768C192.739,408.08 221.659,438.327 257.334,438.327L257.337,438.327C293.012,438.327 321.932,408.08 321.932,370.768L321.932,314.104Z" style="fill:none;stroke:white;stroke-width:32.42px;"/>
        </g>
        <g transform="matrix(1,-3.88578e-16,-6.14571e-16,1.48933,29.992,54.1813)">
            <path d="M228.379,256L227.925,316.43" style="fill:none;stroke:white;stroke-width:23.65px;"/>
        </g>
    </g>
</svg>
